<?xml version="1.0" encoding="UTF-8"?>
<svg xmlns="http://www.w3.org/2000/svg" width="1600" height="2400" viewBox="0 0 1600 2400" role="img" aria-label="幽灵海盗封面">
  <defs>
    <linearGradient id="sea" x1="0" y1="0" x2="0" y2="1">
      <stop offset="0" stop-color="#08131a"/>
      <stop offset="0.55" stop-color="#12313a"/>
      <stop offset="1" stop-color="#0a0f13"/>
    </linearGradient>
    <linearGradient id="mist" x1="0" y1="0" x2="1" y2="1">
      <stop offset="0" stop-color="#dfe9e7" stop-opacity="0.15"/>
      <stop offset="1" stop-color="#dfe9e7" stop-opacity="0.02"/>
    </linearGradient>
  </defs>
  <rect width="1600" height="2400" fill="url(#sea)"/>
  <rect x="120" y="140" width="1360" height="2120" rx="36" fill="#071116" stroke="#b8c7c3" stroke-width="4" opacity="0.94"/>
  <circle cx="1170" cy="430" r="118" fill="#d7ded6" opacity="0.82"/>
  <path d="M240 1510 C430 1410 650 1465 835 1370 C1040 1265 1230 1320 1475 1210 L1475 2260 L120 2260 L120 1690 C170 1628 205 1545 240 1510 Z" fill="#233d45"/>
  <path d="M180 1775 C370 1688 530 1725 710 1645 C900 1560 1110 1600 1460 1460 L1460 2260 L120 2260 L120 1905 C145 1850 160 1805 180 1775 Z" fill="#5d7579" opacity="0.62"/>
  <path d="M460 1275 L760 1385 L1130 1295 L1035 1450 L560 1460 Z" fill="#0b1115" stroke="#c5d0cd" stroke-width="7"/>
  <path d="M770 430 L770 1320 M620 910 L1060 780 M620 910 L765 510 M1060 780 L775 510 M770 640 L525 1225 M770 640 L1115 1190" stroke="#d8e0dc" stroke-width="9" opacity="0.86"/>
  <path d="M775 520 C675 730 595 930 535 1215 C675 1140 795 1000 1060 790 C955 690 880 595 775 520 Z" fill="url(#mist)"/>
  <path d="M1120 1030 C1215 1045 1295 1085 1360 1160 C1260 1140 1175 1138 1085 1168 Z" fill="#dce5df" opacity="0.16"/>
  <text x="800" y="350" text-anchor="middle" font-family="Noto Serif CJK SC, Source Han Serif SC, STSong, SimSun, serif" font-size="70" fill="#cbd7d3">LifeBook 公版新译</text>
  <text x="800" y="700" text-anchor="middle" font-family="Noto Serif CJK SC, Source Han Serif SC, STSong, SimSun, serif" font-weight="700" font-size="176" fill="#ffffff">幽灵海盗</text>
  <line x1="405" y1="825" x2="1195" y2="825" stroke="#cbd7d3" stroke-width="5" opacity="0.75"/>
  <text x="800" y="1000" text-anchor="middle" font-family="Georgia, 'Times New Roman', serif" font-size="62" fill="#d2ddda">The Ghost Pirates</text>
  <text x="800" y="1138" text-anchor="middle" font-family="Noto Serif CJK SC, Source Han Serif SC, STSong, SimSun, serif" font-size="58" fill="#ffffff">威廉·霍普·霍奇森 著</text>
  <text x="800" y="1225" text-anchor="middle" font-family="Noto Serif CJK SC, Source Han Serif SC, STSong, SimSun, serif" font-size="52" fill="#d2ddda">LifeBook 书坊 译制</text>
  <text x="800" y="2110" text-anchor="middle" font-family="Noto Serif CJK SC, Source Han Serif SC, STSong, SimSun, serif" font-size="44" fill="#cbd7d3">依据 Project Gutenberg #10966 公版原文制作</text>
</svg>