<?xml version="1.0" encoding="UTF-8"?>
<svg xmlns="http://www.w3.org/2000/svg" width="1600" height="2400" viewBox="0 0 1600 2400" role="img" aria-label="爱迪生征服火星封面">
  <defs>
    <linearGradient id="space" x1="0" y1="0" x2="1" y2="1">
      <stop offset="0" stop-color="#08111f"/>
      <stop offset="0.55" stop-color="#202936"/>
      <stop offset="1" stop-color="#5e1f17"/>
    </linearGradient>
    <linearGradient id="mars" x1="0" y1="0" x2="1" y2="1">
      <stop offset="0" stop-color="#f0a05b"/>
      <stop offset="0.6" stop-color="#ad3f2c"/>
      <stop offset="1" stop-color="#5f1817"/>
    </linearGradient>
  </defs>
  <rect width="1600" height="2400" fill="url(#space)"/>
  <circle cx="1160" cy="570" r="310" fill="url(#mars)" opacity="0.96"/>
  <path d="M910 520 C1040 455 1190 485 1390 430" fill="none" stroke="#f5c16f" stroke-width="22" opacity="0.38"/>
  <path d="M910 650 C1070 600 1195 660 1430 575" fill="none" stroke="#381313" stroke-width="18" opacity="0.35"/>
  <circle cx="310" cy="350" r="5" fill="#fff7da"/><circle cx="470" cy="520" r="4" fill="#fff7da"/><circle cx="650" cy="310" r="6" fill="#fff7da"/><circle cx="1320" cy="1010" r="5" fill="#fff7da"/>
  <path d="M250 1710 C480 1560 650 1640 825 1480 C1020 1305 1210 1410 1460 1200 L1460 2240 L250 2240 Z" fill="#1b2833" opacity="0.9"/>
  <path d="M300 1765 L960 1185 L1015 1245 L360 1830 Z" fill="#d7e9f6" opacity="0.72"/>
  <path d="M942 1138 L1088 1265 L1022 1315 L890 1190 Z" fill="#f6d678"/>
  <path d="M360 1850 C560 1760 720 1810 890 1660 C1080 1490 1235 1565 1460 1380 L1460 2240 L360 2240 Z" fill="#6d251d" opacity="0.9"/>
  <text x="800" y="360" text-anchor="middle" font-family="Noto Serif CJK SC, Source Han Serif SC, STSong, SimSun, serif" font-size="72" fill="#f4d891" letter-spacing="8">LifeBook 公版新译</text>
  <text x="800" y="760" text-anchor="middle" font-family="Noto Serif CJK SC, Source Han Serif SC, STSong, SimSun, serif" font-weight="700" font-size="150" fill="#fff7df">爱迪生</text>
  <text x="800" y="950" text-anchor="middle" font-family="Noto Serif CJK SC, Source Han Serif SC, STSong, SimSun, serif" font-weight="700" font-size="150" fill="#fff7df">征服火星</text>
  <line x1="410" y1="1055" x2="1190" y2="1055" stroke="#f4d891" stroke-width="5" opacity="0.78"/>
  <text x="800" y="1225" text-anchor="middle" font-family="Georgia, 'Times New Roman', serif" font-size="54" fill="#f4d891">Edison's Conquest of Mars</text>
  <text x="800" y="1365" text-anchor="middle" font-family="Noto Serif CJK SC, Source Han Serif SC, STSong, SimSun, serif" font-size="58" fill="#fff7df">加勒特·P. 瑟维斯 著</text>
  <text x="800" y="1455" text-anchor="middle" font-family="Noto Serif CJK SC, Source Han Serif SC, STSong, SimSun, serif" font-size="52" fill="#f4d891">LifeBook 书坊 译制</text>
  <text x="800" y="2110" text-anchor="middle" font-family="Noto Serif CJK SC, Source Han Serif SC, STSong, SimSun, serif" font-size="44" fill="#f6ddb2">依据 Project Gutenberg #19141 公版原文制作</text>
</svg>